<svg xmlns="http://www.w3.org/2000/svg" xmlns:xlink="http://www.w3.org/1999/xlink" width="181.78" height="52.88" viewBox="0 0 181.78 52.88"><defs><linearGradient id="a" x1="0.5" y1="1.069" x2="0.5" y2="-0.065" gradientUnits="objectBoundingBox"><stop offset="0.03" stop-color="#89785b"/><stop offset="0.2" stop-color="#8e7d5f"/><stop offset="0.41" stop-color="#9d8b69"/><stop offset="0.64" stop-color="#b6a27b"/><stop offset="0.69" stop-color="#bba77f"/><stop offset="0.78" stop-color="#bfaa82"/><stop offset="0.87" stop-color="#cab48b"/><stop offset="0.96" stop-color="#ddc59a"/><stop offset="0.97" stop-color="#e0c89d"/></linearGradient><linearGradient id="b" x1="0.499" y1="2.167" x2="0.499" y2="-0.805" xlink:href="#a"/><linearGradient id="c" x1="0.498" y1="8.175" x2="0.498" y2="-1.602" xlink:href="#a"/><linearGradient id="d" x1="0.5" y1="2.714" x2="0.5" y2="-1.609" xlink:href="#a"/><linearGradient id="e" x1="0.498" y1="2.379" x2="0.498" y2="-1.818" xlink:href="#a"/><linearGradient id="f" x1="0.499" y1="2.379" x2="0.499" y2="-1.818" xlink:href="#a"/><linearGradient id="g" x1="0.5" y1="2.648" x2="0.5" y2="-1.546" xlink:href="#a"/><linearGradient id="h" x1="0.503" y1="2.855" x2="0.503" y2="-1.864" xlink:href="#a"/><linearGradient id="i" x1="0.5" y1="3.248" x2="0.5" y2="-2.478" xlink:href="#a"/><linearGradient id="j" x1="0.501" y1="3.329" x2="0.501" y2="-2.544" xlink:href="#a"/><linearGradient id="k" x1="0.501" y1="3.259" x2="0.501" y2="-2.491" xlink:href="#a"/><linearGradient id="l" x1="0.499" y1="7.127" x2="0.499" y2="-1.508" xlink:href="#a"/><linearGradient id="m" x1="0.499" y1="9.332" x2="0.499" y2="-2.428" xlink:href="#a"/><linearGradient id="n" x1="0.501" y1="9.675" x2="0.501" y2="-2.531" xlink:href="#a"/><linearGradient id="o" x1="0.496" y1="9.5" x2="0.496" y2="-2.46" xlink:href="#a"/><linearGradient id="p" x1="0.497" y1="6.944" x2="0.497" y2="-1.42" xlink:href="#a"/><linearGradient id="q" x1="0.501" y1="9.332" x2="0.501" y2="-2.428" xlink:href="#a"/><linearGradient id="r" x1="0.496" y1="9.283" x2="0.496" y2="-2.404" xlink:href="#a"/><linearGradient id="s" x1="0.496" y1="6.809" x2="0.496" y2="-1.392" xlink:href="#a"/><linearGradient id="t" x1="0.499" y1="9.294" x2="0.499" y2="-2.413" xlink:href="#a"/><linearGradient id="u" x1="0.495" y1="9.553" x2="0.495" y2="-2.481" xlink:href="#a"/><linearGradient id="v" x1="0.505" y1="7.852" x2="0.505" y2="-1.812" xlink:href="#a"/><linearGradient id="w" x1="0.499" y1="6.944" x2="0.499" y2="-1.42" xlink:href="#a"/><linearGradient id="x" x1="0.499" y1="9.332" x2="0.499" y2="-2.416" xlink:href="#a"/></defs><path d="M176.08,52.88H5.71A5.71,5.71,0,0,1,0,47.18V5.71A5.71,5.71,0,0,1,5.71,0H176.07a5.71,5.71,0,0,1,5.71,5.71V47.18a5.71,5.71,0,0,1-5.7,5.7ZM5.71,1A4.71,4.71,0,0,0,1,5.71V47.18a4.71,4.71,0,0,0,4.71,4.7H176.08a4.71,4.71,0,0,0,4.7-4.7h0V5.71A4.71,4.71,0,0,0,176.07,1Z" fill="url(#a)"/><path d="M40.2,26.15a7.86,7.86,0,0,1,3.8-6.6,8,8,0,0,0-6.35-3.43c-2.67-.28-5.26,1.6-6.62,1.6s-3.49-1.58-5.74-1.53a8.47,8.47,0,0,0-7.12,4.34c-3.07,5.33-.78,13.16,2.17,17.46,1.47,2.11,3.19,4.46,5.45,4.38s3-1.41,5.69-1.41,3.42,1.41,5.72,1.36,3.8-2.12,5.23-4.25a17.29,17.29,0,0,0,2.41-4.92,7.61,7.61,0,0,1-4.64-7Z" fill="url(#b)"/><path d="M35.85,13.29a7.79,7.79,0,0,0,1.78-5.56,7.94,7.94,0,0,0-5.11,2.64,7.36,7.36,0,0,0-1.81,5.35A6.51,6.51,0,0,0,35.85,13.29Z" fill="url(#c)"/><path d="M72.13,42.07H69.05l-1.69-5.31H61.49l-1.61,5.31h-3L62.69,24h3.6Zm-5.28-7.54-1.53-4.71c-.16-.49-.46-1.62-.91-3.41h0c-.18.77-.47,1.9-.86,3.41L62,34.53Z" fill="url(#d)"/><path d="M87.09,35.39a7.41,7.41,0,0,1-1.8,5.26,5.25,5.25,0,0,1-4,1.71,4,4,0,0,1-3.7-1.85h0v6.87h-2.9V33.33c0-1.4,0-2.82-.11-4.29h2.55l.16,2.06h.06a5.15,5.15,0,0,1,8.24-.51A7.19,7.19,0,0,1,87.09,35.39Zm-3,.11a5.34,5.34,0,0,0-.86-3.14,3.07,3.07,0,0,0-4.46-.57,3.28,3.28,0,0,0-1.14,1.86,3.73,3.73,0,0,0-.13.88v2.18a3.51,3.51,0,0,0,.87,2.4,2.88,2.88,0,0,0,2.26,1,3,3,0,0,0,2.55-1.26,5.51,5.51,0,0,0,.96-3.35Z" fill="url(#e)"/><path d="M102.08,35.39a7.41,7.41,0,0,1-1.8,5.26,5.26,5.26,0,0,1-4,1.71,4,4,0,0,1-3.69-1.85h-.06v6.87H89.64V33.33c0-1.4,0-2.82-.11-4.29h2.55l.16,2.06h.05a5.16,5.16,0,0,1,8.25-.51,7.24,7.24,0,0,1,1.54,4.8Zm-3,.11a5.41,5.41,0,0,0-.86-3.14,3.08,3.08,0,0,0-4.47-.57,3.27,3.27,0,0,0-1.13,1.86,3.82,3.82,0,0,0-.14.88v2.18a3.51,3.51,0,0,0,.87,2.4,2.9,2.9,0,0,0,2.27,1,3,3,0,0,0,2.55-1.26,5.58,5.58,0,0,0,.96-3.35Z" fill="url(#f)"/><path d="M118.83,37a4.8,4.8,0,0,1-1.6,3.75,7.11,7.11,0,0,1-4.93,1.59,8.62,8.62,0,0,1-4.68-1.13l.67-2.41a7.93,7.93,0,0,0,4.19,1.2,4,4,0,0,0,2.55-.74,2.43,2.43,0,0,0,.91-2,2.54,2.54,0,0,0-.75-1.86,7.07,7.07,0,0,0-2.5-1.39Q108,32.22,108,28.81a4.59,4.59,0,0,1,1.66-3.66A6.56,6.56,0,0,1,114,23.73a8.77,8.77,0,0,1,4.1.86L117.41,27a7.06,7.06,0,0,0-3.46-.83,3.48,3.48,0,0,0-2.38.75,2.14,2.14,0,0,0-.73,1.63,2.21,2.21,0,0,0,.83,1.77,9.45,9.45,0,0,0,2.63,1.4,8.75,8.75,0,0,1,3.43,2.19A4.58,4.58,0,0,1,118.83,37Z" fill="url(#g)"/><path d="M128.4,31.21h-3.19v6.33c0,1.61.56,2.41,1.69,2.41a5.18,5.18,0,0,0,1.29-.13l.08,2.19a6.37,6.37,0,0,1-2.25.33,3.48,3.48,0,0,1-2.69-1.05,5.15,5.15,0,0,1-1-3.51V31.21h-1.9V29h1.9V26.65l2.84-.86V29h3.19Z" fill="url(#h)"/><path d="M142.8,35.45a7.12,7.12,0,0,1-1.72,4.93,6.12,6.12,0,0,1-4.77,2,5.83,5.83,0,0,1-4.57-1.9,7,7,0,0,1-1.7-4.8,7.09,7.09,0,0,1,1.75-5,6.08,6.08,0,0,1,4.74-1.93,5.92,5.92,0,0,1,4.61,1.91,6.84,6.84,0,0,1,1.66,4.79Zm-3,.09a5.86,5.86,0,0,0-.78-3.09,2.87,2.87,0,0,0-2.6-1.56,2.92,2.92,0,0,0-2.66,1.56,6,6,0,0,0-.77,3.14,5.87,5.87,0,0,0,.77,3.1,3,3,0,0,0,2.63,1.55,2.87,2.87,0,0,0,2.6-1.58A5.85,5.85,0,0,0,139.8,35.54Z" fill="url(#i)"/><path d="M152.21,31.58a5.33,5.33,0,0,0-.91-.07,2.73,2.73,0,0,0-2.36,1.15,4.29,4.29,0,0,0-.73,2.57v6.84h-2.89V33.14c0-1.5,0-2.87-.11-4.1h2.52l.11,2.49h.07a4.53,4.53,0,0,1,1.45-2.06,3.49,3.49,0,0,1,2.1-.7,5.31,5.31,0,0,1,.72.05Z" fill="url(#j)"/><path d="M165.16,34.94a6.89,6.89,0,0,1-.11,1.31h-8.69a3.82,3.82,0,0,0,1.26,3,4.3,4.3,0,0,0,2.84.91,9.46,9.46,0,0,0,3.52-.62l.45,2a10.82,10.82,0,0,1-4.37.81,6.33,6.33,0,0,1-4.76-1.78,6.61,6.61,0,0,1-1.73-4.79,7.52,7.52,0,0,1,1.61-4.91,5.58,5.58,0,0,1,4.56-2.09A4.87,4.87,0,0,1,164,30.83,7.11,7.11,0,0,1,165.16,34.94Zm-2.76-.75a4,4,0,0,0-.57-2.23,2.54,2.54,0,0,0-2.3-1.21,2.77,2.77,0,0,0-2.31,1.18,4.38,4.38,0,0,0-.86,2.26Z" fill="url(#k)"/><path d="M65.89,12.88a4.48,4.48,0,0,1-1.43,3.61,5.7,5.7,0,0,1-3.78,1.12,17.4,17.4,0,0,1-2.08-.11V8.77a15.57,15.57,0,0,1,2.45-.18,5.31,5.31,0,0,1,3.51,1A4.1,4.1,0,0,1,65.89,12.88Zm-1.5,0a3.23,3.23,0,0,0-.82-2.38,3.22,3.22,0,0,0-2.41-.83A6.19,6.19,0,0,0,60,9.8v6.64a9,9,0,0,0,1,0,3.38,3.38,0,0,0,2.52-.91,3.66,3.66,0,0,0,.87-2.61Z" fill="url(#l)"/><path d="M73.85,14.28A3.47,3.47,0,0,1,73,16.7a3,3,0,0,1-2.34,1,2.89,2.89,0,0,1-2.25-.94,3.43,3.43,0,0,1-.83-2.36,3.44,3.44,0,0,1,.86-2.4,3.27,3.27,0,0,1,4.59,0,3.41,3.41,0,0,1,.82,2.28Zm-1.48,0A2.89,2.89,0,0,0,72,12.81,1.39,1.39,0,0,0,70.71,12a1.41,1.41,0,0,0-1.3.77A2.86,2.86,0,0,0,69,14.35a2.84,2.84,0,0,0,.38,1.52,1.45,1.45,0,0,0,2.57,0,3,3,0,0,0,.42-1.55Z" fill="url(#m)"/><path d="M84.51,11.13l-2,6.4h-1.3l-.83-2.78c-.21-.69-.38-1.38-.52-2.07h0a14.25,14.25,0,0,1-.52,2.07l-.88,2.78H77.12l-1.88-6.4H76.7l.73,3c.17.72.32,1.41.43,2.06h0a19.58,19.58,0,0,1,.53-2l.9-3.06h1.16l.87,3c.21.73.39,1.43.52,2.11h0a19.309,19.309,0,0,1,.43-2.11l.78-3Z" fill="url(#n)"/><path d="M91.89,17.53H90.47V13.87c0-1.13-.43-1.7-1.29-1.7a1.29,1.29,0,0,0-1,.47,1.64,1.64,0,0,0-.39,1.09v3.8H86.33V11.17h1.25l.07,1h0a2,2,0,0,1,.73-.77,2.41,2.41,0,0,1,1.28-.4,2,2,0,0,1,1.49.58,2.78,2.78,0,0,1,.74,2.12Z" fill="url(#o)"/><path d="M95.82,17.53H94.39V8.19h1.43Z" fill="url(#p)"/><path d="M104.19,14.28a3.51,3.51,0,0,1-.84,2.42,3,3,0,0,1-2.34,1,2.88,2.88,0,0,1-2.25-.94,3.39,3.39,0,0,1-.84-2.36,3.45,3.45,0,0,1,.87-2.4,3.27,3.27,0,0,1,4.59,0,3.41,3.41,0,0,1,.81,2.28Zm-1.47,0a2.8,2.8,0,0,0-.39-1.51,1.38,1.38,0,0,0-1.27-.77,1.42,1.42,0,0,0-1.31.77,3,3,0,0,0-.38,1.54,2.93,2.93,0,0,0,.38,1.52,1.45,1.45,0,0,0,1.29.77,1.42,1.42,0,0,0,1.28-.78,2.87,2.87,0,0,0,.4-1.5Z" fill="url(#q)"/><path d="M111.08,17.53H109.8l-.1-.74h0a2.21,2.21,0,0,1-1.87.89,2,2,0,0,1-1.47-.58,1.84,1.84,0,0,1-.5-1.31,2,2,0,0,1,1-1.79,5.16,5.16,0,0,1,2.77-.6v-.12c0-.85-.45-1.27-1.33-1.27a3,3,0,0,0-1.67.48l-.29-.94a4.08,4.08,0,0,1,2.2-.55c1.67,0,2.51.88,2.51,2.65V16a10.272,10.272,0,0,0,.03,1.53Zm-1.48-2.2v-1c-1.57,0-2.35.41-2.35,1.29a.9.9,0,0,0,.97,1.01,1.43,1.43,0,0,0,.87-.3,1.24,1.24,0,0,0,.49-.76,1.691,1.691,0,0,0,.02-.24Z" fill="url(#r)"/><path d="M119.17,17.53H117.9l-.06-1h0a2.13,2.13,0,0,1-2.06,1.18,2.43,2.43,0,0,1-1.92-.91,3.54,3.54,0,0,1-.76-2.36,3.68,3.68,0,0,1,.83-2.52,2.55,2.55,0,0,1,2-.89,1.91,1.91,0,0,1,1.8.87h0V8.19h1.43v7.62A12.242,12.242,0,0,0,119.17,17.53Zm-1.48-2.7V13.76a1.78,1.78,0,0,0,0-.44,1.65,1.65,0,0,0-.51-.87,1.44,1.44,0,0,0-1-.35,1.48,1.48,0,0,0-1.25.64,2.72,2.72,0,0,0-.45,1.62,2.55,2.55,0,0,0,.43,1.54,1.48,1.48,0,0,0,1.25.63,1.36,1.36,0,0,0,1.12-.53,1.71,1.71,0,0,0,.41-1.17Z" fill="url(#s)"/><path d="M131.34,14.28a3.52,3.52,0,0,1-.85,2.42,3,3,0,0,1-2.34,1,2.89,2.89,0,0,1-2.25-.94,3.39,3.39,0,0,1-.83-2.36,3.44,3.44,0,0,1,.86-2.43,3.27,3.27,0,0,1,4.59,0A3.41,3.41,0,0,1,131.34,14.28Zm-1.48,0a2.89,2.89,0,0,0-.38-1.51A1.39,1.39,0,0,0,128.2,12a1.41,1.41,0,0,0-1.3.77,2.86,2.86,0,0,0-.39,1.54,2.84,2.84,0,0,0,.39,1.52,1.45,1.45,0,0,0,2.57,0,3,3,0,0,0,.39-1.51Z" fill="url(#t)"/><path d="M139,17.53h-1.43V13.87c0-1.13-.42-1.7-1.29-1.7a1.27,1.27,0,0,0-1,.47,1.6,1.6,0,0,0-.4,1.09v3.8h-1.42V13c0-.56,0-1.17-.05-1.83h1.25l.06,1h0a2.1,2.1,0,0,1,.74-.77,2.41,2.41,0,0,1,1.29-.36,2,2,0,0,1,1.49.58A2.82,2.82,0,0,1,139,13.7Z" fill="url(#u)"/><path d="M148.56,12.2H147v3.11c0,.79.27,1.18.83,1.18a2.28,2.28,0,0,0,.63-.07V17.5a3.1,3.1,0,0,1-1.11.16,1.69,1.69,0,0,1-1.31-.51,2.5,2.5,0,0,1-.48-1.73V12.2h-.94V11.13h.94V10l1.4-.42v1.59h1.56Z" fill="url(#v)"/><path d="M156.1,17.53h-1.43V13.89c0-1.15-.43-1.72-1.29-1.72a1.34,1.34,0,0,0-1.35,1,1.53,1.53,0,0,0-.07.51v3.85h-1.42V8.19H152v3.86h0A2.14,2.14,0,0,1,153.91,11a2,2,0,0,1,1.46.58,2.89,2.89,0,0,1,.73,2.15Z" fill="url(#w)"/><path d="M163.87,14a2.9,2.9,0,0,1-.06.64h-4.26a1.84,1.84,0,0,0,.62,1.45,2.09,2.09,0,0,0,1.39.45,4.8,4.8,0,0,0,1.73-.3l.22,1a5.26,5.26,0,0,1-2.15.4,3.06,3.06,0,0,1-2.33-.88,3.2,3.2,0,0,1-.85-2.35A3.66,3.66,0,0,1,159,12a2.73,2.73,0,0,1,2.24-1,2.38,2.38,0,0,1,2.09,1A3.46,3.46,0,0,1,163.87,14Zm-1.36-.37a1.85,1.85,0,0,0-.28-1.09,1.23,1.23,0,0,0-1.13-.6,1.37,1.37,0,0,0-1.13.58,2.09,2.09,0,0,0-.42,1.11Z" fill="url(#x)"/></svg>