<svg xmlns="http://www.w3.org/2000/svg" xmlns:xlink="http://www.w3.org/1999/xlink" width="30.013" height="25.135" viewBox="0 0 30.013 25.135"><defs><linearGradient id="a" x1="0.5" x2="0.5" y2="1" gradientUnits="objectBoundingBox"><stop offset="0" stop-color="#d4be93"/><stop offset="1" stop-color="#8f7d5e"/></linearGradient></defs><path d="M4.152-11.7H30.568a1.84,1.84,0,0,0,1.8-1.856,1.83,1.83,0,0,0-1.8-1.856H4.152a1.84,1.84,0,0,0-1.8,1.856A1.868,1.868,0,0,0,4.152-11.7Zm0,7.136H30.568a1.84,1.84,0,0,0,1.8-1.856,1.83,1.83,0,0,0-1.8-1.856H4.152a1.84,1.84,0,0,0-1.8,1.856A1.868,1.868,0,0,0,4.152-4.562Zm0,7.151H30.568a1.849,1.849,0,0,0,1.8-1.856,1.821,1.821,0,0,0-1.8-1.856H4.152A1.84,1.84,0,0,0,2.354.733,1.868,1.868,0,0,0,4.152,2.589Zm0,7.136H30.568a1.849,1.849,0,0,0,1.8-1.856,1.821,1.821,0,0,0-1.8-1.856H4.152a1.84,1.84,0,0,0-1.8,1.856A1.868,1.868,0,0,0,4.152,9.725Z" transform="translate(-2.354 15.41)" fill="url(#a)"/></svg>