<svg xmlns="http://www.w3.org/2000/svg" xmlns:xlink="http://www.w3.org/1999/xlink" width="347.12" height="40" viewBox="0 0 347.12 40"><defs><linearGradient id="a" x1="0.5" y1="1.363" x2="0.5" y2="-0.118" gradientUnits="objectBoundingBox"><stop offset="0.03" stop-color="#89785b"/><stop offset="0.2" stop-color="#8e7d5f"/><stop offset="0.41" stop-color="#9d8b69"/><stop offset="0.64" stop-color="#b6a27b"/><stop offset="0.69" stop-color="#bba77f"/><stop offset="0.78" stop-color="#bfaa82"/><stop offset="0.87" stop-color="#cab48b"/><stop offset="0.96" stop-color="#ddc59a"/><stop offset="0.97" stop-color="#e0c89d"/></linearGradient><linearGradient id="b" x1="0.5" y1="1.331" x2="0.5" y2="-0.093" xlink:href="#a"/><linearGradient id="c" x1="0.5" y1="1.325" x2="0.5" y2="-0.089" xlink:href="#a"/><linearGradient id="d" x1="0.5" y1="1.332" x2="0.5" y2="-0.089" xlink:href="#a"/><linearGradient id="e" x1="0.5" y1="1.367" x2="0.5" y2="-0.114" xlink:href="#a"/><linearGradient id="f" x1="0.5" y1="1.336" x2="0.5" y2="-0.089" xlink:href="#a"/><linearGradient id="g" x1="0.5" y1="1.358" x2="0.5" y2="-0.08" xlink:href="#a"/><linearGradient id="h" x1="0.5" y1="1.371" x2="0.5" y2="-0.111" xlink:href="#a"/></defs><path d="M19.57,1.34c12.76,0,20.72,7.22,20.73,18.9s-7.93,18.89-20.69,18.9L0,39.16v-.54H.71a3.44,3.44,0,0,0,3.45-3.39L4.14,5A3.34,3.34,0,0,0,.69,1.89H0V1.36Zm-7.3,35.51H19c7.74,0,12.55-6.36,12.54-16.59S26.64,3.61,18.92,3.62H12.24Z" fill="url(#a)"/><path d="M88.17,20.17c0,12.14-8.26,19.67-21.23,19.68s-21.25-7.5-21.26-19.64S53.94.55,66.91.54,88.16,8,88.17,20.17Zm-8.86,0c0-10.72-4.79-17.38-12.4-17.37S54.53,9.48,54.54,20.21s4.79,17.38,12.4,17.37,12.38-6.67,12.37-17.4Z" fill="url(#b)"/><path d="M143.08,1.22v.54h-.48a5,5,0,0,0-4.66,3.16L128.89,34a20,20,0,0,0-.94,6h-.51L115.63,14l-8.51,20a19.86,19.86,0,0,0-1.32,6h-.51l-13-35.1a5.15,5.15,0,0,0-4.64-3.12h-.44V1.27h16.48V1.8h-.48c-1.39,0-2.79,1.23-2.08,3.39l6.66,18.73L117.61.4h.5l10.77,23.71,5.37-19c.59-2.17-.56-3.37-2.06-3.36h-.47V1.23Z" fill="url(#c)"/><path d="M186.66,1.18v.54h-1A3.34,3.34,0,0,0,182.32,5V32.9a34.851,34.851,0,0,0,.63,6.89h-.49l-27.31-26V35.22a3.33,3.33,0,0,0,3.33,3.26h1V39H143.17v-.54h1a3.32,3.32,0,0,0,3.33-3.27V7.13a33.4,33.4,0,0,0-.64-6.74h.54l27.26,25.94V4.98a3.33,3.33,0,0,0-3.33-3.27h-1V1.19Z" fill="url(#d)"/><path d="M217.62,39h-28v-.54h.68a3.47,3.47,0,0,0,3.46-3.4V5.13a3.47,3.47,0,0,0-3.46-3.4h-.68V1.17H206V1.7h-.68a3.47,3.47,0,0,0-3.46,3.4V36.66H209c5.4,0,8.9-3.36,10.56-8.72h.54Z" fill="url(#e)"/><path d="M265.34,20c0,12.14-8.25,19.67-21.22,19.68S222.86,32.18,222.85,20,231.11.38,244.08.37,265.33,7.87,265.34,20Zm-8.86,0c0-10.72-4.79-17.38-12.4-17.37S231.7,9.31,231.71,20s4.79,17.38,12.4,17.37S256.49,30.74,256.48,20Z" fill="url(#f)"/><path d="M301.12,35.2a5.31,5.31,0,0,0,4.61,3.12h.45v.54h-17.2v-.53h.47a2.31,2.31,0,0,0,2.09-3.4l-2.67-6.67H276.2L273.44,35a2.28,2.28,0,0,0,2.07,3.39H276v.53H264.41v-.54h.48a5.29,5.29,0,0,0,4.54-3l12.46-28.3c.39-.82,2.52-5.51,2.65-7.08H285ZM288,26l-5.29-13.26L277.15,26Z" fill="url(#g)"/><path d="M326.4,1.05c12.75,0,20.71,7.22,20.72,18.89s-7.93,18.9-20.69,18.91H306.84v-.54h.68a3.48,3.48,0,0,0,3.46-3.4V4.67a3.33,3.33,0,0,0-3.44-3.09h-.69V1.07Zm-7.31,35.51h6.68c7.74,0,12.55-6.37,12.54-16.6S333.46,3.32,325.74,3.33h-6.68Z" fill="url(#h)"/></svg>