<svg xmlns="http://www.w3.org/2000/svg" xmlns:xlink="http://www.w3.org/1999/xlink" width="144.23" height="239.75" viewBox="0 0 144.23 239.75"><defs><linearGradient id="a" x1="0.5" y1="1.654" x2="0.5" y2="-0.394" gradientUnits="objectBoundingBox"><stop offset="0.03" stop-color="#89785b"/><stop offset="0.2" stop-color="#8e7d5f"/><stop offset="0.41" stop-color="#9d8b69"/><stop offset="0.64" stop-color="#b6a27b"/><stop offset="0.69" stop-color="#bba77f"/><stop offset="0.78" stop-color="#bfaa82"/><stop offset="0.87" stop-color="#cab48b"/><stop offset="0.96" stop-color="#ddc59a"/><stop offset="0.97" stop-color="#e0c89d"/></linearGradient><linearGradient id="b" x1="0.5" y1="6.375" x2="0.5" y2="-0.275" xlink:href="#a"/><linearGradient id="c" x1="0.5" y1="1.306" x2="0.5" y2="-0.228" xlink:href="#a"/><linearGradient id="d" x1="0.501" y1="1.273" x2="0.501" y2="-0.2" xlink:href="#a"/><linearGradient id="e" x1="0.498" y1="1.272" x2="0.498" y2="-0.201" xlink:href="#a"/></defs><path d="M0,98.53V85.93a29.05,29.05,0,0,0,.65-3c3.34-29,30.81-51,59.93-38,8.59,3.82,16.51,3.71,25.07,0,8-3.47,16.52-5.38,25.54-3.88,11.52,1.92,21.21,6.67,28.21,16.52l-3.46,2.51c-14.92,10.81-19.86,29.68-12,46.35,4.25,9,11.47,15.1,20.29,19.43v.7a17.239,17.239,0,0,0-1.27,2.35c-3.76,10.49-9.56,19.79-16.43,28.51-5.45,6.92-11.64,12.62-20.8,13.94h-2.8c-5.84-1.84-11.66-3.72-17.51-5.5a33.16,33.16,0,0,0-19.6,0c-5.64,1.72-11.2,3.68-16.8,5.53H43.4c-6.57-1.69-11.61-5.67-16-10.62A104.7,104.7,0,0,1,4.3,119.3C2.39,112.51,1.41,105.46,0,98.53Z" fill="url(#a)"/><path d="M72.49,40.17C69.61,21.91,86.52,2.55,107.34,0,111.79,17.2,91.24,42.34,72.49,40.17Z" fill="url(#b)"/><path d="M29.78,239.12v-.48h.56a2.66,2.66,0,0,0,2.77-2.55V213.35a2.66,2.66,0,0,0-2.77-2.55h-.56v-.48H43.39v.48h-.56a2.7,2.7,0,0,0-2.8,2.51v22.8a2.7,2.7,0,0,0,2.8,2.53h.57v.48Z" fill="url(#c)"/><path d="M82.82,224.74c0,9.26-6.81,15-17,15s-17-5.75-17-15,6.82-15,17-15S82.82,215.45,82.82,224.74Zm-7.38,0c0-8.13-3.77-13.14-9.62-13.14s-9.62,5-9.62,13.14,3.8,13.11,9.62,13.11S75.44,232.83,75.44,224.74Z" fill="url(#d)"/><path d="M105.91,223.84a7.53,7.53,0,0,1,4,7.21c-.3,5.43-4.61,8.7-11.28,8.7-4.14,0-7.47-1.07-8.85-2.56-.74-1.84-.08-5.5,1.08-7.31h.37c-.27,4.34,2.81,8,7.93,8,3.75,0,5.56-2,5.56-4.35,0-1.66-1.13-2.77-3.59-4.32l-6.83-4.33c-3.07-1.94-4.61-4.56-4.25-7.85.41-4.57,3.77-7.27,8.66-7.27a58.483,58.483,0,0,1,6.24.44h2.61l-.68,6.29h-.4c0-2.91-2.15-4.82-6-4.82-3.08,0-5.13,1.55-5.25,3.74-.14,1.78,1.3,2.71,3.11,3.81Z" fill="url(#e)"/></svg>