<svg xmlns="http://www.w3.org/2000/svg" xmlns:xlink="http://www.w3.org/1999/xlink" width="238.82" height="246.22" viewBox="0 0 238.82 246.22"><defs><linearGradient id="a" x1="0.5" y1="1.646" x2="0.5" y2="-0.543" gradientUnits="objectBoundingBox"><stop offset="0.03" stop-color="#89785b"/><stop offset="0.2" stop-color="#8e7d5f"/><stop offset="0.41" stop-color="#9d8b69"/><stop offset="0.64" stop-color="#b6a27b"/><stop offset="0.69" stop-color="#bba77f"/><stop offset="0.78" stop-color="#bfaa82"/><stop offset="0.87" stop-color="#cab48b"/><stop offset="0.96" stop-color="#ddc59a"/><stop offset="0.97" stop-color="#e0c89d"/></linearGradient><linearGradient id="b" x1="0.501" y1="2.953" x2="0.501" y2="-0.944" xlink:href="#a"/><linearGradient id="c" x1="0.5" y1="2.955" x2="0.5" y2="-0.945" xlink:href="#a"/><linearGradient id="d" x1="0.5" y1="4.706" x2="0.5" y2="-0.083" xlink:href="#a"/><linearGradient id="e" x1="0.5" y1="1.292" x2="0.5" y2="-0.174" xlink:href="#a"/><linearGradient id="f" x1="0.5" y1="1.271" x2="0.5" y2="-0.197" xlink:href="#a"/><linearGradient id="g" x1="0.5" y1="1.306" x2="0.5" y2="-0.228" xlink:href="#a"/><linearGradient id="h" x1="0.5" y1="1.304" x2="0.5" y2="-0.228" xlink:href="#a"/><linearGradient id="i" x1="0.5" y1="1.273" x2="0.5" y2="-0.2" xlink:href="#a"/><linearGradient id="j" x1="0.499" y1="1.305" x2="0.499" y2="-0.228" xlink:href="#a"/><linearGradient id="k" x1="0.5" y1="1.306" x2="0.5" y2="-0.228" xlink:href="#a"/></defs><g transform="translate(0 0.01)"><path d="M99.49,184.2c-4.42-1.43-7.49-4.2-8.5-8.85a23.67,23.67,0,0,1-.45-4.83c-.05-7.2,0-14.4,0-21.61v-2.37c-.92,0-1.73-.12-2.54-.13a74,74,0,0,0-7.74.06c-5.17.52-10-4.84-9.92-9.73V62c.92-.08,1.74-.2,2.55-.2h96.15c1.56,0,2.19.33,2.19,2.08q-.09,36,0,72a10.23,10.23,0,0,1-5.36,9.49,8.61,8.61,0,0,1-3.92,1c-3.53.13-7.06,0-10.77,0-.06.83-.14,1.53-.14,2.22,0,7.21-.14,14.41,0,21.61.16,6.82-2.3,11.73-9,14h-3.6a30.1,30.1,0,0,1-5-2.74c-3.23-2.64-4-6.38-4-10.36V146.58c-.74,0-1.27-.1-1.8-.1-4.5,0-9,.06-13.5,0-1.59,0-2,.43-2,2,.08,7.38,0,14.77,0,22.15,0,7.56-2.15,10.82-9,13.59Z" fill="url(#a)"/><path d="M42.93,70.38c.42-1.24.74-2.53,1.28-3.72a10.56,10.56,0,0,1,10.88-6.34c4.31.56,8.34,4.57,9.08,9.08a22.6,22.6,0,0,1,.35,3.6q0,21.52,0,43c0,4.14-1.06,7.87-4.35,10.62-6.16,5.15-15,1.65-16.89-6.62-.11-.46-.24-.91-.37-1.36Z" fill="url(#b)"/><path d="M198.54,118.65c-.7,2.94-1.7,5.73-4.1,7.8-6.22,5.34-15.45,1.84-17.13-6.53a19.472,19.472,0,0,1-.36-3.57c0-14.34-.07-28.69,0-43a18.52,18.52,0,0,1,1.28-6.63,10.34,10.34,0,0,1,10.84-6.37c4.23.55,8.16,4.42,9.07,8.9.08.39.24.77.36,1.16Z" fill="url(#c)"/><path d="M96.89,16l-2.35-4.13c-1.91-3.33-3.85-6.64-5.69-10-.27-.49,0-1.25,0-1.88.54.32,1.31.5,1.59,1,2.38,4,4.67,8,7,12,.42.71.86,1.42,1.27,2.1,3.32-1,6.47-2.2,9.72-2.94a54.84,54.84,0,0,1,32,2.21c2.68,1,2.1,1.39,3.66-1.27,2.17-3.66,4.27-7.36,6.41-11a5,5,0,0,1,.8-1.45,5.13,5.13,0,0,1,1.44-.59,4.18,4.18,0,0,1,.12,1.43,9.141,9.141,0,0,1-.93,1.74L144.62,16c15.8,8.59,25.31,21.24,26.21,39.83-.83,0-1.51.12-2.2.12h-96c-1.69,0-2-.59-1.85-2.11,1.23-16.06,9.3-27.75,22.85-36Zm42.94,18.77a4.71,4.71,0,0,0,4.46,4.68,4.57,4.57,0,0,0,4.92-4.35,4.66,4.66,0,0,0-4.51-5,4.74,4.74,0,0,0-4.87,4.68Zm-38.15.12a4.71,4.71,0,1,0-4.75,4.57,4.63,4.63,0,0,0,4.75-4.56Z" fill="url(#d)"/><path d="M29.46,242.4a4.24,4.24,0,0,0,3.77,2.68h.35v.48H19.48v-.48h.37a1.77,1.77,0,0,0,1.64-2.66L19.63,238H9.46l-1.92,4.45a1.77,1.77,0,0,0,1.67,2.6h.38v.48H0v-.48H.38a4.23,4.23,0,0,0,3.67-2.5L14,221.25c.33-.74,2.09-4.46,2.24-5.82h.4Zm-10.63-6.26-4.25-10-4.31,10Z" fill="url(#e)"/><path d="M71.21,216.76v.48H70.4a2.57,2.57,0,0,0-2.64,2.38v21a27.22,27.22,0,0,0,.52,5.59h-.43L45.79,226.76v15.87a2.56,2.56,0,0,0,2.65,2.45h.8v.48H35.81v-.48h.78a2.54,2.54,0,0,0,2.65-2.45v-21.1a25.3,25.3,0,0,0-.53-5.43h.46l22,19.36V219.69a2.5,2.5,0,0,0-2.61-2.45h-.81v-.48Z" fill="url(#f)"/><path d="M92.58,216.76c10.3,0,16.49,5.38,16.49,14.42s-6.19,14.38-16.49,14.38H76.37v-.48H77a2.67,2.67,0,0,0,2.69-2.6V219.74a2.64,2.64,0,0,0-2.74-2.5h-.57v-.48Zm-6,26.87H92c6,0,9.74-4.64,9.74-12.45s-3.7-12.53-9.74-12.53H86.6Z" fill="url(#g)"/><path d="M129.43,216.76c5.32,0,10.48,1.88,10.48,7.86a7.5,7.5,0,0,1-6.67,7.76c1.9.58,3.73,2.61,4.63,4.08a54,54,0,0,0,3.49,5.35c1.87,2.55,3,3.26,4.93,3.27v.48h-4c-5.21,0-7.67-1-10-4.6a35,35,0,0,1-3.22-6.55c-.8-2-2-2.87-2.87-2.94v-.4h1.22c2,0,4.19-.77,5-4.8a7.55,7.55,0,0,0,.16-2c-.21-4.74-3.44-5.42-5.1-5.5-1.24-.06-2.2,0-2.74,0v23.79a2.56,2.56,0,0,0,2.61,2.55h.52v.48h-13.2v-.48h.58a2.54,2.54,0,0,0,2.55-2.5V219.73a2.49,2.49,0,0,0-2.53-2.49h-.6v-.48Z" fill="url(#h)"/><path d="M181.66,231.18c0,9.25-6.81,15-17,15s-17-5.75-17-15,6.81-15,17-15S181.66,221.89,181.66,231.18Zm-7.38,0c0-8.13-3.77-13.15-9.62-13.15s-9.62,5-9.62,13.15,3.8,13.11,9.62,13.11S174.28,239.27,174.28,231.18Z" fill="url(#i)"/><path d="M187,245.56v-.48h.57a2.67,2.67,0,0,0,2.77-2.55V219.78a2.67,2.67,0,0,0-2.77-2.54H187v-.49h13.61v.49H200a2.69,2.69,0,0,0-2.8,2.51v22.79a2.69,2.69,0,0,0,2.8,2.54h.56v.48Z" fill="url(#j)"/><path d="M222.33,216.76c10.3,0,16.49,5.38,16.49,14.42s-6.19,14.38-16.49,14.38H206.12v-.48h.59a2.67,2.67,0,0,0,2.69-2.6V219.74a2.64,2.64,0,0,0-2.73-2.5h-.58v-.48Zm-6,26.87h5.41c6,0,9.73-4.64,9.73-12.45s-3.7-12.53-9.73-12.53h-5.41Z" fill="url(#k)"/></g></svg>