<svg xmlns="http://www.w3.org/2000/svg" xmlns:xlink="http://www.w3.org/1999/xlink" width="215" height="232.38" viewBox="0 0 215 232.38"><defs><linearGradient id="a" x1="0.5" y1="3.382" x2="0.5" y2="-0.254" gradientUnits="objectBoundingBox"><stop offset="0.03" stop-color="#89785b"/><stop offset="0.2" stop-color="#8e7d5f"/><stop offset="0.41" stop-color="#9d8b69"/><stop offset="0.64" stop-color="#b6a27b"/><stop offset="0.69" stop-color="#bba77f"/><stop offset="0.78" stop-color="#bfaa82"/><stop offset="0.87" stop-color="#cab48b"/><stop offset="0.96" stop-color="#ddc59a"/><stop offset="0.97" stop-color="#e0c89d"/></linearGradient><linearGradient id="b" x1="0.5" y1="1.885" x2="0.5" y2="-0.658" xlink:href="#a"/><linearGradient id="c" x1="0.5" y1="1.802" x2="0.5" y2="-0.462" xlink:href="#a"/><linearGradient id="d" x1="0.5" y1="3.55" x2="0.5" y2="-1.24" xlink:href="#a"/><linearGradient id="e" x1="0.5" y1="1.272" x2="0.5" y2="-0.199" xlink:href="#a"/><linearGradient id="f" x1="0.5" y1="1.305" x2="0.5" y2="-0.228" xlink:href="#a"/><linearGradient id="g" x1="0.5" y1="1.305" x2="0.5" y2="-0.228" xlink:href="#a"/><linearGradient id="h" x1="0.5" y1="1.273" x2="0.5" y2="-0.2" xlink:href="#a"/><linearGradient id="i" x1="0.5" y1="1.26" x2="0.5" y2="-0.197" xlink:href="#a"/><linearGradient id="j" x1="0.501" y1="1.298" x2="0.501" y2="-0.198" xlink:href="#a"/></defs><path d="M109.51,0c6.22,1.18,12.61,1.81,18.64,3.63,20.95,6.29,36.42,19.45,46.75,38.7a13.186,13.186,0,0,1,.49,1.4h-2.66c-21.77,0-43.54.34-65.29-.13C90,43.23,74.62,54.47,71,72.28c-.07.33-.18.66-.39,1.42-1.08-1.74-2-3.17-2.89-4.66Q56.66,49.84,45.66,30.59a3.1,3.1,0,0,1,.2-2.83A77.27,77.27,0,0,1,93.61,1C96,.65,98.35.34,100.73,0Z" fill="url(#a)"/><path d="M100.73,156a10.589,10.589,0,0,1,.71-2.1c10.3-17.48,20.54-35,31-52.38,2.76-4.59,5.74-9,6.93-14.29,2.93-13-.28-24.33-9.54-33.92-.75-.78-1.62-1.45-3-2.7h49c1.52,0,2.42.34,2.75,1.92,1.25,6,2.55,11.9,3.83,17.84.18.83.32,1.67.48,2.5V84.21c-.42,2.7-.72,5.43-1.3,8.1q-10.26,47.23-56.62,61c-5,1.47-10.28,1.82-15.43,2.69Z" fill="url(#b)"/><path d="M27.88,73.87C28.56,69.57,29,65.22,30,61A75.77,75.77,0,0,1,40.58,35.91c1.37,2.35,2.63,4.46,3.85,6.59Q57.36,65,70.27,87.42c2.34,4.08,4,8.7,6.84,12.33,9.86,12.44,22.78,16.42,38.15,12.56.48-.12,1-.22,2-.44-2.41,4.14-4.58,7.89-6.77,11.61-5.58,9.48-11.24,18.91-16.72,28.45-1.28,2.23-2.51,2.73-5.09,2.17A77.7,77.7,0,0,1,28.8,88.75c-.33-2.54-.61-5.1-.92-7.64Z" fill="url(#c)"/><path d="M105.37,106.58c-14.26.27-28.13-11.89-27.66-28.84a28.09,28.09,0,0,1,28.76-27.09c15.35.47,27.7,13.49,27.2,28.68C133.17,94.7,120.33,107.06,105.37,106.58Z" fill="url(#d)"/><path d="M28.8,219.43l.56,7.24c-1.87,3-5.8,5.42-12,5.42C6.62,232,0,226.56,0,217.05s6.47-15,17.31-15a25.73,25.73,0,0,1,10.81,2.18v7.63h-.37c-1.63-5.9-5.19-7.92-9.95-7.92-7,0-10.48,5.19-10.48,13,0,8,3.69,13.07,10,13.22,6.84,0,9.92-2.92,11.1-10.74Z" fill="url(#e)"/><path d="M67.61,203.14A2.61,2.61,0,0,0,65,205.69v22.79A2.57,2.57,0,0,0,67.58,231h.54v.47H54.91V231h.53a2.61,2.61,0,0,0,2.64-2.54v-10.4H45.43v10.39A2.61,2.61,0,0,0,48.07,231h.53v.48H35.36V231h.53a2.57,2.57,0,0,0,2.61-2.55V205.69a2.57,2.57,0,0,0-2.61-2.55h-.53v-.48H48.6v.48h-.53a2.61,2.61,0,0,0-2.64,2.52v10.51H58.08V205.69a2.61,2.61,0,0,0-2.65-2.55h-.52v-.48H68.15v.48Z" fill="url(#f)"/><path d="M88.74,202.66c5.32,0,10.48,1.88,10.48,7.87a7.5,7.5,0,0,1-6.66,7.75c1.9.58,3.73,2.61,4.63,4.09a51.527,51.527,0,0,0,3.49,5.35c1.87,2.55,2.95,3.26,4.93,3.26v.49h-4c-5.22,0-7.67-1-10-4.61a35,35,0,0,1-3.21-6.55c-.81-2-2-2.87-2.88-2.94V217h1.23c2,0,4.18-.77,5-4.8a7.5,7.5,0,0,0,.16-2c-.22-4.73-3.44-5.42-5.1-5.5H84.06v23.8a2.57,2.57,0,0,0,2.62,2.5h.52v.47H74V231h.57a2.55,2.55,0,0,0,2.56-2.51V205.64a2.51,2.51,0,0,0-2.53-2.5H74v-.48Z" fill="url(#g)"/><path d="M141,217.08c0,9.26-6.82,15-17,15s-17-5.75-17-15,6.82-15,17-15S141,207.79,141,217.08Zm-7.39,0c0-8.13-3.77-13.14-9.62-13.14s-9.61,5-9.61,13.14,3.8,13.11,9.61,13.11,9.6-5.01,9.6-13.11Z" fill="url(#h)"/><path d="M183.05,228.61a3,3,0,0,0,3.07,2.38h.68v.47H173.44V231h.67a1.64,1.64,0,0,0,1.66-1.92l-1.88-13.74-7.65,12.16a12,12,0,0,0-1.74,4.88h-.42L153,215.56l-1.65,13.52A1.72,1.72,0,0,0,153,231h.67v.46h-9.13V231h.65a3,3,0,0,0,3.16-2.6l3.73-26.34h.39L166,222.34l12.73-20.28h.42Z" fill="url(#i)"/><path d="M213.17,231.46H190.6V231h.57a2.56,2.56,0,0,0,2.6-2.51V205.64a2.54,2.54,0,0,0-2.6-2.5h-.57v-.48h16.89a18.89,18.89,0,0,0,5-.74v7.66H212v-.45c0-2.76-1.59-4.5-4.37-4.54H200.7v11.64h5.46a3.59,3.59,0,0,0,3.66-3.8v-.31h.5v10.16h-.5v-.34a3.58,3.58,0,0,0-3.6-3.79H200.7v11.38h5.77c4.06,0,6.84-2.65,8.1-6.89H215Z" fill="url(#j)"/></svg>