<svg xmlns="http://www.w3.org/2000/svg" xmlns:xlink="http://www.w3.org/1999/xlink" width="39.041" height="39.041" viewBox="0 0 39.041 39.041"><defs><linearGradient id="a" x1="0.501" y1="1.393" x2="0.501" y2="0.078" gradientUnits="objectBoundingBox"><stop offset="0.03" stop-color="#89785b"/><stop offset="0.2" stop-color="#8e7d5f"/><stop offset="0.41" stop-color="#9d8b69"/><stop offset="0.64" stop-color="#b6a27b"/><stop offset="0.69" stop-color="#bba77f"/><stop offset="0.78" stop-color="#bfaa82"/><stop offset="0.87" stop-color="#cab48b"/><stop offset="0.96" stop-color="#ddc59a"/><stop offset="0.97" stop-color="#e0c89d"/></linearGradient><linearGradient id="b" x1="0.496" y1="1.958" x2="0.496" y2="-0.237" xlink:href="#a"/></defs><g transform="translate(0.041 0.041)"><path d="M19.51,39A19.52,19.52,0,1,1,39,19.51,19.52,19.52,0,0,1,19.51,39Zm0-35.86a16.355,16.355,0,1,1,0,.03Z" fill="url(#a)"/><path d="M24,20.22H20.8V31.94H16V20.22H13.7V16.1H16V13.43c0-1.9.91-4.89,4.9-4.89h3.58v4h-2.6a1,1,0,0,0-1,1.13V16.1h3.63Z" fill="url(#b)"/></g></svg>