<svg xmlns="http://www.w3.org/2000/svg" xmlns:xlink="http://www.w3.org/1999/xlink" width="186.271" height="53.933" viewBox="0 0 186.271 53.933"><defs><linearGradient id="a" x1="0.5" y1="1.793" x2="0.5" y2="-0.452" gradientUnits="objectBoundingBox"><stop offset="0.03" stop-color="#89785b"/><stop offset="0.2" stop-color="#8e7d5f"/><stop offset="0.41" stop-color="#9d8b69"/><stop offset="0.64" stop-color="#b6a27b"/><stop offset="0.69" stop-color="#bba77f"/><stop offset="0.78" stop-color="#bfaa82"/><stop offset="0.87" stop-color="#cab48b"/><stop offset="0.96" stop-color="#ddc59a"/><stop offset="0.97" stop-color="#e0c89d"/></linearGradient><linearGradient id="b" x1="0.5" y1="3.599" x2="0.5" y2="-0.907" xlink:href="#a"/><linearGradient id="c" x1="0.501" y1="2.575" x2="0.501" y2="-1.89" xlink:href="#a"/><linearGradient id="d" x1="0.501" y1="5.197" x2="0.501" y2="-2.95" xlink:href="#a"/><linearGradient id="e" x1="0.5" y1="1.019" x2="0.5" y2="0.006" xlink:href="#a"/><clipPath id="g"><path d="M20.86,12V45.11a.72.72,0,0,0,.45.75L38.93,28.39,21.45,11.05a.88.88,0,0,0-.59.95" fill="url(#a)"/></clipPath><linearGradient id="h" x1="-78.794" y1="35.105" x2="-78.794" y2="35.101" xlink:href="#a"/><clipPath id="j"><path d="M21.45,11.05,38.93,28.39l4.86-4.82-7.3-4.21h-.07l-14-8.09a1.4,1.4,0,0,0-.67-.19,1.09,1.09,0,0,0-.26,0" fill="url(#b)"/></clipPath><linearGradient id="k" x1="-63.288" y1="70.165" x2="-63.288" y2="70.154" xlink:href="#a"/><clipPath id="m"><path d="M21.31,45.86a.93.93,0,0,0,.75-.12l2-1.17,12.39-7.16,3.65-2.1,3.65-2.11-4.86-4.81Z" fill="url(#c)"/></clipPath><linearGradient id="n" x1="-63.494" y1="68.979" x2="-63.494" y2="68.963" xlink:href="#a"/><clipPath id="p"><path d="M38.93,28.39l4.86,4.81,5.34-3.08,1.67-1c.8-.46.75-1.08.12-1.46h-.05c-.65-.35-6.25-3.61-7-4l-.08-.05Z" fill="url(#d)"/></clipPath><linearGradient id="q" x1="-114.374" y1="2.168" x2="-114.374" y2="-5.945" xlink:href="#a"/><linearGradient id="r" x1="0.499" y1="3.203" x2="0.499" y2="-1.921" xlink:href="#a"/><linearGradient id="s" x1="0.5" y1="3.584" x2="0.5" y2="-1.695" xlink:href="#a"/><linearGradient id="t" x1="0.5" y1="4.524" x2="0.5" y2="-2.711" xlink:href="#a"/><linearGradient id="u" x1="0.5" y1="3.223" x2="0.5" y2="-1.951" xlink:href="#a"/><linearGradient id="v" x1="0.496" y1="2.912" x2="0.496" y2="-1.776" xlink:href="#a"/><linearGradient id="w" x1="0.5" y1="4.675" x2="0.5" y2="-2.809" xlink:href="#a"/><linearGradient id="x" x1="0.5" y1="4.675" x2="0.5" y2="-2.809" xlink:href="#a"/><linearGradient id="y" x1="0.5" y1="3.335" x2="0.5" y2="-1.515" xlink:href="#a"/><linearGradient id="z" x1="0.5" y1="3.506" x2="0.5" y2="-1.547" xlink:href="#a"/><linearGradient id="aa" x1="0.502" y1="4.673" x2="0.502" y2="-2.813" xlink:href="#a"/><linearGradient id="ab" x1="0.5" y1="30.88" x2="0.5" y2="-18.57" xlink:href="#a"/><linearGradient id="ac" x1="0.504" y1="30.88" x2="0.504" y2="-18.57" xlink:href="#a"/><linearGradient id="ad" x1="0.498" y1="14.002" x2="0.498" y2="-3.516" xlink:href="#a"/><linearGradient id="ae" x1="0.505" y1="14.031" x2="0.505" y2="-3.526" xlink:href="#a"/><linearGradient id="af" x1="0.5" y1="14.07" x2="0.5" y2="-3.552" xlink:href="#a"/><linearGradient id="ag" x1="0.514" y1="14.115" x2="0.514" y2="-3.561" xlink:href="#a"/><linearGradient id="ah" x1="0.499" y1="13.597" x2="0.499" y2="-3.411" xlink:href="#a"/><linearGradient id="ai" x1="0.52" y1="14.12" x2="0.52" y2="-3.557" xlink:href="#a"/><linearGradient id="aj" x1="0.499" y1="14.07" x2="0.499" y2="-3.552" xlink:href="#a"/><linearGradient id="ak" x1="0.492" y1="14.12" x2="0.492" y2="-3.557" xlink:href="#a"/><linearGradient id="al" x1="0.503" y1="14.115" x2="0.503" y2="-3.555" xlink:href="#a"/><linearGradient id="am" x1="0.512" y1="14.115" x2="0.512" y2="-3.555" xlink:href="#a"/><linearGradient id="an" x1="0.495" y1="13.464" x2="0.495" y2="-3.364" xlink:href="#a"/><linearGradient id="ao" x1="0.501" y1="14.002" x2="0.501" y2="-3.516" xlink:href="#a"/></defs><g transform="translate(0.001 0.001)"><path d="M180.47,53.93H5.69A5.57,5.57,0,0,1,0,48.24V5.69A5.57,5.57,0,0,1,5.69,0H180.47a5.69,5.69,0,0,1,5.8,5.69V48.17a5.73,5.73,0,0,1-5.8,5.76ZM5.69,1A4.59,4.59,0,0,0,1,5.69V48.24a4.59,4.59,0,0,0,4.69,4.69H180.47a4.75,4.75,0,0,0,4.8-4.26v-43A4.7,4.7,0,0,0,180.47,1Z" fill="url(#e)"/><path d="M20.86,12V45.11a.72.72,0,0,0,.45.75L38.93,28.39,21.45,11.05a.88.88,0,0,0-.59.95" fill="url(#a)"/><g clip-path="url(#g)"><rect width="18.08" height="34.81" transform="translate(20.86 11.05)" fill="url(#h)"/></g><path d="M21.45,11.05,38.93,28.39l4.86-4.82-7.3-4.21h-.07l-14-8.09a1.4,1.4,0,0,0-.67-.19,1.09,1.09,0,0,0-.26,0" fill="url(#b)"/><g clip-path="url(#j)"><rect width="22.34" height="17.37" transform="translate(21.45 11.02)" fill="url(#k)"/></g><path d="M21.31,45.86a.93.93,0,0,0,.75-.12l2-1.17,12.39-7.16,3.65-2.1,3.65-2.11-4.86-4.81Z" fill="url(#c)"/><g clip-path="url(#m)"><rect width="22.48" height="17.55" transform="translate(21.31 28.39)" fill="url(#n)"/></g><path d="M38.93,28.39l4.86,4.81,5.34-3.08,1.67-1c.8-.46.75-1.08.12-1.46h-.05c-.65-.35-6.25-3.61-7-4l-.08-.05Z" fill="url(#d)"/><g clip-path="url(#p)"><rect width="12.66" height="9.63" transform="translate(38.93 23.57)" fill="url(#q)"/></g><path d="M134.66,35.39A4.51,4.51,0,0,1,132.8,35a3.6,3.6,0,0,1-1.42-1.16h-.11a13.289,13.289,0,0,1,.11,1.73v4.29h-1.57V24.78h1.28l.22,1.42h.07A3.65,3.65,0,0,1,132.8,25a4.24,4.24,0,0,1,1.86-.38,3.84,3.84,0,0,1,3.2,1.42A6.23,6.23,0,0,1,139,30a6.24,6.24,0,0,1-1.15,4,3.87,3.87,0,0,1-3.18,1.42m-.23-9.46a2.78,2.78,0,0,0-2.31.88,4.58,4.58,0,0,0-.74,2.82V30a5.17,5.17,0,0,0,.74,3.14,2.76,2.76,0,0,0,2.35,1,2.43,2.43,0,0,0,2.1-1.14,5.21,5.21,0,0,0,.77-3,5,5,0,0,0-.77-3,2.53,2.53,0,0,0-2.15-1" fill="url(#r)"/><rect width="1.58" height="14.8" transform="translate(141.06 20.4)" fill="url(#s)"/><path d="M151.72,35.2l-.32-1.48h-.07a4.51,4.51,0,0,1-1.56,1.33,4.73,4.73,0,0,1-1.93.34,3.43,3.43,0,0,1-2.43-.8,2.9,2.9,0,0,1-.88-2.27c0-2.1,1.68-3.21,5.05-3.31l1.77-.06v-.64a2.67,2.67,0,0,0-.53-1.82,2.18,2.18,0,0,0-1.69-.58,6.93,6.93,0,0,0-2.95.8l-.48-1.21a7.25,7.25,0,0,1,1.69-.66,7.66,7.66,0,0,1,1.84-.23,4,4,0,0,1,2.76.82,3.48,3.48,0,0,1,.9,2.66V35.2Zm-3.57-1.11a3.21,3.21,0,0,0,2.32-.81,3,3,0,0,0,.84-2.26v-.94l-1.58.06a5.77,5.77,0,0,0-2.72.59,1.76,1.76,0,0,0-.83,1.61,1.6,1.6,0,0,0,.52,1.3,2.15,2.15,0,0,0,1.45.45" fill="url(#t)"/><path d="M153.8,24.78h1.7l2.28,5.94a22.848,22.848,0,0,1,.93,2.94h.08c.08-.32.25-.87.52-1.66s1.12-3.19,2.58-7.22h1.69L159.1,36.65a6,6,0,0,1-1.55,2.5,3.33,3.33,0,0,1-2.19.73,6.18,6.18,0,0,1-1.42-.16V38.46a6,6,0,0,0,1.17.11,2.41,2.41,0,0,0,2.32-1.83l.58-1.48Z" fill="url(#u)"/><path d="M105.41,25.75A3.66,3.66,0,0,1,107,28.69a3.7,3.7,0,0,1-1.84,3.1,1.54,1.54,0,0,0-.61,1.07,1.19,1.19,0,0,0,.57.93l.79.61c1,.81,1.83,1.55,1.83,3.06,0,2-2,4.12-5.74,4.12-3.16,0-4.68-1.51-4.68-3.12A3.13,3.13,0,0,1,99,35.8a9.49,9.49,0,0,1,4.17-1,2.25,2.25,0,0,1-.66-1.48,1.93,1.93,0,0,1,.22-.85h-.7a3.45,3.45,0,0,1-3.61-3.43,3.91,3.91,0,0,1,1.39-2.92,6,6,0,0,1,3.9-1.2h4.5l-1.4.79Zm-1.55,9.68a3.781,3.781,0,0,0-.5,0,8.5,8.5,0,0,0-2.29.35A2.44,2.44,0,0,0,99.19,38c0,1.55,1.51,2.66,3.84,2.66,2.09,0,3.21-1,3.21-2.35,0-1.12-.72-1.7-2.38-2.88m.63-4.15a2.2,2.2,0,0,0,.55-1.59c0-1.57-.94-4-2.75-4a2,2,0,0,0-1.53.72,2.53,2.53,0,0,0-.48,1.61c0,1.47.85,3.89,2.73,3.89a2.22,2.22,0,0,0,1.48-.62" fill="url(#v)"/><path d="M91.68,35.08a5.14,5.14,0,0,1-5.31-5.14A5.4,5.4,0,0,1,92,24.65a5.09,5.09,0,0,1,5.2,5.14,5.32,5.32,0,0,1-5.53,5.29m2.72-1.76a3.91,3.91,0,0,0,.66-2.42c0-1.92-.92-5.57-3.62-5.57a3,3,0,0,0-2,.74,3.28,3.28,0,0,0-1,2.65c0,2.16,1.07,5.7,3.7,5.7a2.79,2.79,0,0,0,2.22-1.1" fill="url(#w)"/><path d="M79.88,35.08a5.14,5.14,0,0,1-5.31-5.14,5.4,5.4,0,0,1,5.64-5.29,5.09,5.09,0,0,1,5.2,5.14,5.32,5.32,0,0,1-5.53,5.29m2.72-1.76a3.91,3.91,0,0,0,.66-2.42c0-1.92-.92-5.57-3.62-5.57a3,3,0,0,0-2,.74,3.28,3.28,0,0,0-1,2.65c0,2.16,1.07,5.7,3.7,5.7a2.79,2.79,0,0,0,2.22-1.1" fill="url(#x)"/><path d="M72.91,34.74l-3.13.72a22.91,22.91,0,0,1-3.61.37c-6,0-8.34-4.44-8.34-7.92,0-4.25,3.26-8.19,8.84-8.19a12.85,12.85,0,0,1,3.35.46,8.51,8.51,0,0,1,2.89,1.36l-1.82,1.73-.77.17.55-.87a6.25,6.25,0,0,0-4.68-2.06c-3.46,0-6.06,2.63-6.06,6.46a7.74,7.74,0,0,0,7.74,8,6.54,6.54,0,0,0,2.78-.55V30.89l-3.3.17,1.75-.94h4.64l-.57.55A.5.5,0,0,0,73,31c0,.19,0,.83,0,1.05Z" fill="url(#y)"/><path d="M112.33,34.11c-.73-.07-.88-.2-.88-1V20.67a.711.711,0,0,0,0-.14c.09-.77.31-.9,1-1.29h-3.13l-1.64.78h1.67V33.54c0,.44-.09.5-.59,1.16h3.87l.81-.48a10.426,10.426,0,0,1-1.11-.11" fill="url(#z)"/><path d="M121.23,34.31c-.24.13-.48.28-.71.39a5,5,0,0,1-2.11.41,4.66,4.66,0,0,1-2.9-.84,5.63,5.63,0,0,1-2.21-4.59,4.93,4.93,0,0,1,5-5,4.2,4.2,0,0,1,2.24.61A3.65,3.65,0,0,1,122,27.42l-5.11,2.06-1.67.13c.54,2.76,2.41,4.37,4.47,4.37a5.56,5.56,0,0,0,2.65-.76Zm-2-6.48c.41-.15.63-.28.63-.59a2.16,2.16,0,0,0-2.15-1.86,2.667,2.667,0,0,0-2.5,3,7.517,7.517,0,0,0,.06,1.15Z" fill="url(#aa)"/><path d="M123.33,24.81v1.43h-.17V24.81h-.48v-.15h1.12v.15Z" fill="url(#ab)"/><path d="M125.28,26.24V24.79h0l-.45,1.45h-.13l-.45-1.45h0v1.45h-.16V24.66h.27l.4,1.28h.01l.4-1.28h.27v1.58Z" fill="url(#ac)"/><path d="M62.17,15.46H61.09a7.941,7.941,0,0,0-.31-1.27H59.21a6.12,6.12,0,0,0-.32,1.27h-1a22.41,22.41,0,0,1,.79-2.17A16.35,16.35,0,0,0,59.45,11h1.29a18.22,18.22,0,0,0,.72,2.21,20.68,20.68,0,0,1,.71,2.21M60.6,13.54c-.38-1.17-.58-1.8-.58-1.89H60c0,.08-.2.72-.6,1.89Z" fill="url(#ad)"/><path d="M66.56,15.46h-.84A8.27,8.27,0,0,0,64.78,14a8.28,8.28,0,0,1-1.11-1.92h-.06a11.44,11.44,0,0,1,.09,1.35c0,.56,0,1.24,0,2h-.84c0-.7.05-1.47.05-2.31s0-1.53-.05-2.11h1a6.42,6.42,0,0,0,.84,1.44,8.83,8.83,0,0,1,1,1.81h0a11.739,11.739,0,0,1-.09-1.36q0-.93,0-1.89h.85v4.42" fill="url(#ae)"/><path d="M71.48,13.1a2.46,2.46,0,0,1-.62,1.68,2.16,2.16,0,0,1-1.73.72H67.74c0-.68.05-1.45.05-2.31s0-1.53-.05-2.11h1.41a2.28,2.28,0,0,1,1.78.61,2.11,2.11,0,0,1,.55,1.47m-.93.14a1.62,1.62,0,0,0-.38-1.1A1.46,1.46,0,0,0,69,11.7h-.4v3.03a2.18,2.18,0,0,0,.44,0,1.27,1.27,0,0,0,1.08-.45,1.71,1.71,0,0,0,.35-1.11" fill="url(#af)"/><path d="M76,15.46H75A6.48,6.48,0,0,0,74.41,14a.78.78,0,0,0-.68-.28h-.37v1.76h-1V11.06h1.62c1,0,1.56.35,1.56,1.06a1.19,1.19,0,0,1-.89,1.18v.05a1.13,1.13,0,0,1,.6.54A11.82,11.82,0,0,1,76,15.46m-1.27-3.12c0-.46-.29-.68-.87-.68a3.06,3.06,0,0,0-.56.05c0,.35,0,.81,0,1.37h.32q1.08,0,1.08-.75" fill="url(#ag)"/><path d="M80.9,13.17a2.48,2.48,0,0,1-.64,1.73,2.08,2.08,0,0,1-1.58.68A2,2,0,0,1,77.17,15a2.22,2.22,0,0,1-.6-1.6,2.44,2.44,0,0,1,.64-1.73,2.151,2.151,0,0,1,3.08-.06,2.25,2.25,0,0,1,.61,1.61m-.94.1a1.74,1.74,0,0,0-.37-1.16,1.12,1.12,0,0,0-.89-.44,1.06,1.06,0,0,0-.85.45,1.76,1.76,0,0,0-.34,1.12,1.76,1.76,0,0,0,.36,1.15,1.14,1.14,0,0,0,.9.45,1,1,0,0,0,.84-.45A1.78,1.78,0,0,0,80,13.27" fill="url(#ah)"/><path d="M82.82,15.46h-1V11.04h1v4.42" fill="url(#ai)"/><path d="M87.74,13.1a2.5,2.5,0,0,1-.61,1.68,2.18,2.18,0,0,1-1.74.72H84.01V11.08h1.4a2.28,2.28,0,0,1,1.78.61,2.11,2.11,0,0,1,.55,1.47m-.92.14a1.67,1.67,0,0,0-.38-1.1,1.49,1.49,0,0,0-1.17-.44h-.4v3.03a2.18,2.18,0,0,0,.44,0,1.27,1.27,0,0,0,1.08-.45,1.72,1.72,0,0,0,.36-1.11" fill="url(#aj)"/><path d="M94.28,15.46H93.19a6.89,6.89,0,0,0-.31-1.27H91.31A6.92,6.92,0,0,0,91,15.46H90a22.411,22.411,0,0,1,.79-2.17,17.349,17.349,0,0,0,.8-2.25h1.28a18.219,18.219,0,0,0,.72,2.21,19.591,19.591,0,0,1,.72,2.21m-1.57-1.92a18.879,18.879,0,0,1-.58-1.89H92.1c0,.08-.2.72-.6,1.89Z" fill="url(#ak)"/><path d="M98.24,12.2a1.33,1.33,0,0,1-.6,1.2,2.76,2.76,0,0,1-1.48.38h-.23v1.68H95V11.04h1.7a1.91,1.91,0,0,1,1.09.29,1,1,0,0,1,.44.89m-.87.18c0-.48-.33-.72-1-.72a2.32,2.32,0,0,0-.51.05c0,.42,0,.91,0,1.45h.2c.82,0,1.24-.26,1.24-.79" fill="url(#al)"/><path d="M102.32,12.2a1.33,1.33,0,0,1-.6,1.2,2.78,2.78,0,0,1-1.48.38H100v1.68H99V11.04h1.69a1.89,1.89,0,0,1,1.09.29,1,1,0,0,1,.45.89m-.88.18q0-.72-1-.72a2.32,2.32,0,0,0-.51.05v1.45h.19c.83,0,1.24-.26,1.24-.79" fill="url(#am)"/><path d="M109,13.17a2.44,2.44,0,0,1-.64,1.73,2.139,2.139,0,0,1-3.08.05,2.22,2.22,0,0,1-.6-1.6,2.44,2.44,0,0,1,.64-1.73,2.151,2.151,0,0,1,3.08-.06,2.25,2.25,0,0,1,.6,1.61m-.93.1a1.79,1.79,0,0,0-.37-1.16,1.13,1.13,0,0,0-.9-.44,1,1,0,0,0-.84.45,1.76,1.76,0,0,0-.34,1.12,1.76,1.76,0,0,0,.36,1.15,1.11,1.11,0,0,0,.9.45,1,1,0,0,0,.84-.45,1.78,1.78,0,0,0,.35-1.12" fill="url(#an)"/><path d="M113.59,15.46h-.84a8.53,8.53,0,0,0-.93-1.47,8.07,8.07,0,0,1-1.12-1.92h0c0,.5.08.95.08,1.35v2h-.84V11h1a6.42,6.42,0,0,0,.84,1.44,8.35,8.35,0,0,1,1,1.81h.05c-.05-.51-.08-1-.08-1.36,0-.62,0-1.25-.05-1.89h.85v4.42" fill="url(#ao)"/></g></svg>