<svg xmlns="http://www.w3.org/2000/svg" xmlns:xlink="http://www.w3.org/1999/xlink" width="39.041" height="39.041" viewBox="0 0 39.041 39.041"><defs><linearGradient id="a" x1="0.501" y1="1.393" x2="0.501" y2="0.078" gradientUnits="objectBoundingBox"><stop offset="0.03" stop-color="#89785b"/><stop offset="0.2" stop-color="#8e7d5f"/><stop offset="0.41" stop-color="#9d8b69"/><stop offset="0.64" stop-color="#b6a27b"/><stop offset="0.69" stop-color="#bba77f"/><stop offset="0.78" stop-color="#bfaa82"/><stop offset="0.87" stop-color="#cab48b"/><stop offset="0.96" stop-color="#ddc59a"/><stop offset="0.97" stop-color="#e0c89d"/></linearGradient><linearGradient id="b" x1="0.5" y1="1.364" x2="0.5" y2="-0.424" xlink:href="#a"/></defs><g transform="translate(0.041 0.041)"><path d="M19.51,39A19.52,19.52,0,1,1,39,19.51,19.52,19.52,0,0,1,19.51,39Zm0-35.86a16.355,16.355,0,1,1,0,.03Z" fill="url(#a)"/><path d="M26.45,9.78H12.57A3.18,3.18,0,0,0,9.39,13V26.84A3.19,3.19,0,0,0,12.57,30H26.45a3.19,3.19,0,0,0,3.19-3.19V13a3.18,3.18,0,0,0-3.19-3.22ZM24.3,12.12h2.55a.44.44,0,0,1,.44.44V15.1a.43.43,0,0,1-.44.44H24.31a.44.44,0,0,1-.44-.43V12.56A.44.44,0,0,1,24.3,12.12Zm-7.89,6,.21-.33a3.55,3.55,0,0,1,5.78,0,2.84,2.84,0,0,1,.22.34,3.49,3.49,0,0,1,.46,1.73,3.57,3.57,0,1,1-6.67-1.74Zm11.26,8a2,2,0,0,1-2,1.94H13.3a1.94,1.94,0,0,1-1.94-1.94V17.83h3a4.76,4.76,0,0,0-.19.57A5.28,5.28,0,0,0,14,19.9a5.54,5.54,0,1,0,11.07,0,5.66,5.66,0,0,0-.21-1.5,4.771,4.771,0,0,0-.2-.57h3Z" fill="url(#b)"/></g></svg>