<svg xmlns="http://www.w3.org/2000/svg" xmlns:xlink="http://www.w3.org/1999/xlink" width="81.971" height="15.886" viewBox="0 0 81.971 15.886"><defs><linearGradient id="a" x1="0.5" y1="1.274" x2="0.5" y2="-0.114" gradientUnits="objectBoundingBox"><stop offset="0.027" stop-color="#89785b"/><stop offset="0.201" stop-color="#8e7c5e"/><stop offset="0.412" stop-color="#9d8a69"/><stop offset="0.643" stop-color="#b5a17b"/><stop offset="0.686" stop-color="#bba77f"/><stop offset="0.781" stop-color="#beaa81"/><stop offset="0.87" stop-color="#c9b48b"/><stop offset="0.955" stop-color="#dcc59a"/><stop offset="0.967" stop-color="#e0c89d"/></linearGradient><linearGradient id="b" x1="0.5" y1="1.245" x2="0.5" y2="-0.091" xlink:href="#a"/><linearGradient id="d" x1="0.5" y1="1.274" x2="0.5" y2="-0.114" xlink:href="#a"/><linearGradient id="e" x1="0.5" y1="1.244" x2="0.5" y2="-0.089" xlink:href="#a"/></defs><g transform="translate(-1305.391 -118.246)"><path d="M1316.674,133.826h-11.283l0-.218h.275a1.4,1.4,0,0,0,1.4-1.37V120.16a1.4,1.4,0,0,0-1.4-1.371h-.275l0-.218h6.621l0,.218h-.276a1.4,1.4,0,0,0-1.4,1.371v12.734h2.861c2.176,0,3.59-1.352,4.265-3.515h.218Z" fill="url(#a)"/><path d="M1335.931,126.2c0,4.9-3.338,7.932-8.572,7.932s-8.572-3.035-8.572-7.932,3.339-7.932,8.572-7.932S1335.931,121.3,1335.931,126.2Zm-3.574,0c0-4.328-1.926-7.015-5-7.015s-5,2.687-5,7.015,1.926,7.015,5,7.015S1332.357,130.527,1332.357,126.2Z" fill="url(#b)"/><path d="M1354.613,126.735c-.7,0-1.1.356-1.086.988v3.6c-1.025,1.324-3.732,2.808-7.222,2.808-4.947,0-8.241-3.053-8.241-7.959,0-4.86,3.228-7.9,8.368-7.9a14.58,14.58,0,0,1,6.01,1.18l.043,3.739h-.181a5.007,5.007,0,0,0-5.213-4c-3.564,0-5.475,2.691-5.475,7.12,0,4.209,1.766,6.9,4.975,6.909a3.821,3.821,0,0,0,3.693-2.154v-3.332c0-.636-.417-.994-1.12-.993h-.345v-.217h6.121v.217Z" fill="url(#b)"/><path d="M1368.272,133.826h-6.618l0-.218h.276a1.4,1.4,0,0,0,1.4-1.37V120.149a1.4,1.4,0,0,0-1.4-1.361h-.276l0-.218h6.618l0,.218h-.277a1.4,1.4,0,0,0-1.4,1.357v12.093a1.4,1.4,0,0,0,1.4,1.37h.277Z" fill="url(#d)"/><path d="M1387.362,118.571l0,.218h-.4a1.347,1.347,0,0,0-1.346,1.3v11.259a14.123,14.123,0,0,0,.253,2.78h-.2l-11.011-10.484v8.647a1.345,1.345,0,0,0,1.344,1.314h.4l0,.218H1369.8l0-.218h.4a1.346,1.346,0,0,0,1.346-1.32v-11.32a13.351,13.351,0,0,0-.254-2.722h.215l10.994,10.48V120.11a1.347,1.347,0,0,0-1.346-1.321h-.4l0-.218Z" fill="url(#e)"/></g></svg>