<svg xmlns="http://www.w3.org/2000/svg" xmlns:xlink="http://www.w3.org/1999/xlink" width="39.041" height="39.041" viewBox="0 0 39.041 39.041"><defs><linearGradient id="a" x1="0.501" y1="1.393" x2="0.501" y2="0.078" gradientUnits="objectBoundingBox"><stop offset="0.03" stop-color="#89785b"/><stop offset="0.2" stop-color="#8e7d5f"/><stop offset="0.41" stop-color="#9d8b69"/><stop offset="0.64" stop-color="#b6a27b"/><stop offset="0.69" stop-color="#bba77f"/><stop offset="0.78" stop-color="#bfaa82"/><stop offset="0.87" stop-color="#cab48b"/><stop offset="0.96" stop-color="#ddc59a"/><stop offset="0.97" stop-color="#e0c89d"/></linearGradient><linearGradient id="b" x1="0.498" y1="2.083" x2="0.498" y2="-0.251" xlink:href="#a"/></defs><g transform="translate(0.041 0.041)"><path d="M19.51,39A19.52,19.52,0,1,1,39,19.51,19.52,19.52,0,0,1,19.51,39Zm0-35.86a16.355,16.355,0,1,1,0,.03Z" fill="url(#a)"/><path d="M25.91,10.77A8.42,8.42,0,0,0,20,8.52a9.25,9.25,0,0,0-6.84,2.64,7.77,7.77,0,0,0-2.31,5.4c0,2.44,1,4.32,2.74,5a.86.86,0,0,0,.34.07A.76.76,0,0,0,14.7,21c.06-.22.19-.76.25-1a.92.92,0,0,0-.25-1,3.21,3.21,0,0,1-.7-2.14,5.49,5.49,0,0,1,5.7-5.53c2.93,0,4.76,1.67,4.76,4.35a9.12,9.12,0,0,1-1,4.43,3,3,0,0,1-2.52,1.76,1.65,1.65,0,0,1-1.32-.61,1.49,1.49,0,0,1-.27-1.32c.13-.56.31-1.14.48-1.7a10.22,10.22,0,0,0,.61-2.75,2,2,0,0,0-2-2.2c-1.53,0-2.73,1.55-2.73,3.54a5.19,5.19,0,0,0,.38,2c-.19.81-1.34,5.67-1.56,6.58-.12.54-.88,4.76.37,5.09,1.41.38,2.67-3.73,2.8-4.19s.46-1.81.69-2.69a4.22,4.22,0,0,0,2.83,1.1,6.34,6.34,0,0,0,5.09-2.54,10.22,10.22,0,0,0,1.91-6.24,7.2,7.2,0,0,0-2.25-5.15Z" fill="url(#b)"/></g></svg>