<svg xmlns="http://www.w3.org/2000/svg" xmlns:xlink="http://www.w3.org/1999/xlink" viewBox="0 0 362.88 39.92"><defs><style>.cls-1{fill:url(#linear-gradient);}.cls-2{fill:url(#linear-gradient-2);}.cls-3{fill:url(#linear-gradient-3);}.cls-4{fill:url(#linear-gradient-4);}.cls-5{fill:url(#linear-gradient-5);}.cls-6{fill:url(#linear-gradient-6);}.cls-7{fill:url(#linear-gradient-7);}.cls-8{fill:url(#linear-gradient-8);}.cls-9{fill:url(#linear-gradient-9);}</style><linearGradient id="linear-gradient" x1="15.73" y1="43.71" x2="15.73" y2="-0.33" gradientUnits="userSpaceOnUse"><stop offset="0.03" stop-color="#89785b"/><stop offset="0.2" stop-color="#8e7d5f"/><stop offset="0.41" stop-color="#9d8b69"/><stop offset="0.64" stop-color="#b6a27b"/><stop offset="0.69" stop-color="#bba77f"/><stop offset="0.78" stop-color="#bfaa82"/><stop offset="0.87" stop-color="#cab48b"/><stop offset="0.96" stop-color="#ddc59a"/><stop offset="0.97" stop-color="#e0c89d"/></linearGradient><linearGradient id="linear-gradient-2" x1="55.34" y1="43.71" x2="55.34" y2="-0.33" xlink:href="#linear-gradient"/><linearGradient id="linear-gradient-3" x1="95.44" y1="43.71" x2="95.44" y2="-0.33" xlink:href="#linear-gradient"/><linearGradient id="linear-gradient-4" x1="144.25" y1="43.71" x2="144.25" y2="-0.33" xlink:href="#linear-gradient"/><linearGradient id="linear-gradient-5" x1="193.34" y1="43.71" x2="193.34" y2="-0.33" xlink:href="#linear-gradient"/><linearGradient id="linear-gradient-6" x1="233.7" y1="43.71" x2="233.7" y2="-0.33" xlink:href="#linear-gradient"/><linearGradient id="linear-gradient-7" x1="262.11" y1="43.71" x2="262.11" y2="-0.33" xlink:href="#linear-gradient"/><linearGradient id="linear-gradient-8" x1="295.29" y1="43.71" x2="295.29" y2="-0.33" xlink:href="#linear-gradient"/><linearGradient id="linear-gradient-9" x1="341.11" y1="43.71" x2="341.11" y2="-0.33" xlink:href="#linear-gradient"/></defs><g id="Layer_2" data-name="Layer 2"><g id="Layer_1-2" data-name="Layer 1"><path class="cls-1" d="M18,1c9.23,0,13.24,4.44,13.43,10.34.33,9.32-9.65,14.51-17.35,9.46v-.51a8.08,8.08,0,0,0,8.38-6.16,11.33,11.33,0,0,0,.33-3.25c-.15-4.6-2.63-7.61-6.95-7.61h-3.6V34.9a3.47,3.47,0,0,0,3.46,3.4h.68v.54H0V38.3H.69a3.46,3.46,0,0,0,3.46-3.4V4.68A3.29,3.29,0,0,0,.71,1.57H0V1Z"/><path class="cls-2" d="M53.79,1C60.34,1,66.64,3.7,66.64,11.22c0,4.54-2.71,9.65-8.84,10.26a11.6,11.6,0,0,1,5.51,4.78c.16.27,3.4,5.4,5.43,7.94,2.33,3,3.87,4,6.69,4.09v.54H70.17c-5.91,0-10.2-1.27-12.68-5.59C56.17,31,53.74,25.6,53,24c-1.05-2.26-2.26-3.4-3.66-3.64v-.52H51c2.9,0,5.85-1.51,6.82-6.24A11.74,11.74,0,0,0,58,11c-.22-5.17-2.82-7.48-6.37-7.56-1.43-.07-3.42,0-4.1,0V34.9A3.46,3.46,0,0,0,51,38.29h.67v.54H35.26v-.54H36a3.45,3.45,0,0,0,3.45-3.36V5A3.45,3.45,0,0,0,36,1.57h-.69V1Z"/><path class="cls-3" d="M116.68,19.94c0,12.13-8.27,19.65-21.24,19.65S74.19,32.07,74.19,19.94,82.47.28,95.44.28,116.68,7.8,116.68,19.94Zm-8.86,0c0-10.73-4.77-17.39-12.38-17.39S83.05,9.21,83.05,19.94s4.78,17.38,12.39,17.38S107.82,30.66,107.82,19.94Z"/><path class="cls-4" d="M165.71,34.91a3.86,3.86,0,0,0,3.93,3.38h.86v.54H154.27v-.51h.85a2.18,2.18,0,0,0,2.1-2.3l-2.14-19.57L145,34s-2,3.34-2.08,6h-.51l-13.9-23.33L126.36,36a2.2,2.2,0,0,0,2.1,2.31h.84v.51H118v-.55h.86a3.84,3.84,0,0,0,4-3.38L127.28.28h.5l16.76,27.55L160.6.29h.49Z"/><path class="cls-5" d="M214.59,19.94c0,12.13-8.28,19.65-21.25,19.65s-21.25-7.52-21.25-19.65S180.37.28,193.34.28,214.59,7.8,214.59,19.94Zm-8.87,0c0-10.73-4.77-17.39-12.38-17.39S181,9.21,181,19.94s4.77,17.38,12.38,17.38S205.72,30.66,205.72,19.94Z"/><path class="cls-6" d="M251,9.41h-.54V8.77A5.17,5.17,0,0,0,245,3.26h-7.25V34.94a3.46,3.46,0,0,0,3.46,3.36h.68v.54H225.5V38.3h.68A3.47,3.47,0,0,0,229.65,35V3.26h-7.26A5.17,5.17,0,0,0,217,8.77V9.4h-.54V0a23.36,23.36,0,0,0,6.4,1h21.72A23.49,23.49,0,0,0,251,0Z"/><path class="cls-7" d="M270.31,38.84H253.9V38.3h.69a3.47,3.47,0,0,0,3.46-3.4v-30a3.46,3.46,0,0,0-3.46-3.37h-.69V1h16.4v.54h-.68a3.46,3.46,0,0,0-3.46,3.36v30a3.46,3.46,0,0,0,3.46,3.4h.68Z"/><path class="cls-8" d="M316.54,19.94c0,12.13-8.28,19.65-21.25,19.65s-21.24-7.52-21.24-19.65S282.32.28,295.29.28,316.54,7.8,316.54,19.94Zm-8.86,0c0-10.73-4.78-17.39-12.39-17.39s-12.38,6.66-12.38,17.39,4.77,17.38,12.38,17.38S307.68,30.66,307.68,19.94Z"/><path class="cls-9" d="M362.88,1v.54h-1a3.34,3.34,0,0,0-3.33,3.23V32.7a35.39,35.39,0,0,0,.62,6.89h-.49l-27.29-26V35a3.34,3.34,0,0,0,3.34,3.26h1v.54H319.35V38.3h1A3.33,3.33,0,0,0,323.69,35V7a33,33,0,0,0-.63-6.74h.54l27.24,26V4.85a3.34,3.34,0,0,0-3.33-3.28h-1V1Z"/></g></g></svg>