<svg xmlns="http://www.w3.org/2000/svg" xmlns:xlink="http://www.w3.org/1999/xlink" width="92.544" height="15.886" viewBox="0 0 92.544 15.886"><defs><linearGradient id="a" x1="0.5" y1="1.245" x2="0.5" y2="-0.091" gradientUnits="objectBoundingBox"><stop offset="0.027" stop-color="#89785b"/><stop offset="0.201" stop-color="#8e7c5e"/><stop offset="0.412" stop-color="#9d8a69"/><stop offset="0.643" stop-color="#b5a17b"/><stop offset="0.686" stop-color="#bba77f"/><stop offset="0.781" stop-color="#beaa81"/><stop offset="0.87" stop-color="#c9b48b"/><stop offset="0.955" stop-color="#dcc59a"/><stop offset="0.967" stop-color="#e0c89d"/></linearGradient><linearGradient id="b" x1="0.5" y1="1.274" x2="0.5" y2="-0.114" xlink:href="#a"/><linearGradient id="d" x1="0.5" y1="1.244" x2="0.5" y2="-0.089" xlink:href="#a"/><linearGradient id="e" x1="0.5" y1="1.25" x2="0.5" y2="-0.112" xlink:href="#a"/><linearGradient id="f" x1="0.5" y1="1.275" x2="0.5" y2="-0.114" xlink:href="#a"/></defs><g transform="translate(-1429.456 -118.246)"><path d="M1437.993,126.006a3.828,3.828,0,0,1,1.957,3.613c-.133,2.839-2.274,4.512-5.758,4.512-1.955,0-3.785-.5-4.58-1.324a5.236,5.236,0,0,1,.515-3.7h.192a3.788,3.788,0,0,0,4.109,4.1c1.9-.034,3.013-1.085,3.011-2.449,0-.884-.571-1.474-1.741-2.251l-3.8-2.52a4.078,4.078,0,0,1-2.086-3.91c.185-2.256,1.839-3.815,4.588-3.815a28.364,28.364,0,0,1,2.967.224h1.368l-.285,3.2h-.211c0-1.513-1.228-2.508-3.071-2.508-1.715,0-2.8.925-2.853,2.1-.053.858.607,1.433,1.519,2.026Z" fill="url(#a)"/><path d="M1448.354,133.826h-6.618l0-.218h.277a1.4,1.4,0,0,0,1.394-1.37V120.149a1.394,1.394,0,0,0-1.394-1.361h-.277l0-.218h6.618l0,.218h-.277a1.4,1.4,0,0,0-1.394,1.357v12.093a1.4,1.4,0,0,0,1.394,1.37h.277Z" fill="url(#b)"/><path d="M1466.322,126.735c-.7,0-1.1.356-1.086.988v3.6c-1.025,1.324-3.73,2.808-7.222,2.808-4.945,0-8.24-3.053-8.24-7.959,0-4.86,3.228-7.9,8.368-7.9a14.575,14.575,0,0,1,6.009,1.18l.043,3.739h-.181a5.007,5.007,0,0,0-5.212-4c-3.564,0-5.474,2.691-5.474,7.12,0,4.209,1.765,6.9,4.973,6.909a3.825,3.825,0,0,0,3.695-2.154v-3.332c0-.636-.418-.994-1.122-.993h-.343v-.217h6.121v.217Z" fill="url(#a)"/><path d="M1484.674,118.571l0,.218h-.4a1.347,1.347,0,0,0-1.346,1.3v11.259a14.123,14.123,0,0,0,.253,2.78h-.2l-11.011-10.484v8.647a1.346,1.346,0,0,0,1.344,1.314h.4l0,.218h-6.606l0-.218h.4a1.345,1.345,0,0,0,1.346-1.32v-11.32a13.351,13.351,0,0,0-.254-2.722h.215l10.994,10.48V120.11a1.347,1.347,0,0,0-1.346-1.321h-.4l0-.218Z" fill="url(#d)"/><path d="M1507.96,118.572v.218h-.356a1.111,1.111,0,0,0-1.15,1.029V128.3c0,3.581-2.349,5.827-6.271,5.827-4.667,0-7.1-2.233-7.1-5.789v-8.473a1.108,1.108,0,0,0-1.152-1.079h-.355v-.218h6.278v.218h-.355a1.108,1.108,0,0,0-1.149,1.046v8.318c0,3.1,1.624,5.026,4.231,5.026,2.661,0,4.321-1.818,4.327-4.745v-8.6a1.111,1.111,0,0,0-1.151-1.049h-.355v-.218Z" fill="url(#e)"/><path d="M1516.578,118.573c3.728,0,5.344,1.794,5.419,4.175a4.434,4.434,0,0,1-7,3.814l0-.2a3.262,3.262,0,0,0,3.381-2.486,4.635,4.635,0,0,0,.136-1.31c-.061-1.858-1.061-3.07-2.8-3.07h-1.455v12.747a1.4,1.4,0,0,0,1.4,1.37h.277l0,.218H1509.3l0-.218h.275a1.4,1.4,0,0,0,1.4-1.37V120.044a1.327,1.327,0,0,0-1.392-1.255h-.273l0-.217Z" fill="url(#f)"/></g></svg>