<svg xmlns="http://www.w3.org/2000/svg" xmlns:xlink="http://www.w3.org/1999/xlink" width="34.325" height="34.326" viewBox="0 0 34.325 34.326"><defs><linearGradient id="a" x1="0.5" y1="0.483" x2="0.5" y2="0.999" gradientUnits="objectBoundingBox"><stop offset="0.027" stop-color="#89785b"/><stop offset="0.201" stop-color="#8e7c5e"/><stop offset="0.412" stop-color="#9d8a69"/><stop offset="0.643" stop-color="#b5a17b"/><stop offset="0.686" stop-color="#bba77f"/><stop offset="0.781" stop-color="#beaa81"/><stop offset="0.87" stop-color="#c9b48b"/><stop offset="0.955" stop-color="#dcc59a"/><stop offset="0.967" stop-color="#e0c89d"/></linearGradient><linearGradient id="b" x1="0.5" y1="-0.304" x2="0.5" y2="1.674" xlink:href="#a"/><linearGradient id="c" x1="0.5" y1="0.807" x2="0.5" y2="2.415" xlink:href="#a"/></defs><g transform="translate(-1252 -108.717)"><path d="M1269.163,143.043a17.163,17.163,0,1,1,17.162-17.163A17.182,17.182,0,0,1,1269.163,143.043Zm0-31.539a14.376,14.376,0,1,0,14.376,14.376A14.392,14.392,0,0,0,1269.163,111.5Z" fill="url(#a)"/><path d="M1276.016,134.537a6.818,6.818,0,0,0-6.8-6.507h-.108a6.82,6.82,0,0,0-6.8,6.5,10.837,10.837,0,0,0,13.707.005Zm0,0" fill="url(#b)"/><path d="M1274.665,121.934a5.5,5.5,0,1,1-5.5-5.5,5.5,5.5,0,0,1,5.5,5.5Zm0,0" fill="url(#c)"/></g></svg>